<?xml version='1.0' encoding='UTF-8'?>
<svg width="37mm" height="37mm" version="1.1" viewBox="0 0 37 37" xmlns="http://www.w3.org/2000/svg"><path d="M2,2H3V3H2zM3,2H4V3H3zM4,2H5V3H4zM5,2H6V3H5zM6,2H7V3H6zM7,2H8V3H7zM8,2H9V3H8zM10,2H11V3H10zM12,2H13V3H12zM13,2H14V3H13zM15,2H16V3H15zM20,2H21V3H20zM21,2H22V3H21zM22,2H23V3H22zM25,2H26V3H25zM28,2H29V3H28zM29,2H30V3H29zM30,2H31V3H30zM31,2H32V3H31zM32,2H33V3H32zM33,2H34V3H33zM34,2H35V3H34zM2,3H3V4H2zM8,3H9V4H8zM10,3H11V4H10zM12,3H13V4H12zM15,3H16V4H15zM18,3H19V4H18zM20,3H21V4H20zM23,3H24V4H23zM24,3H25V4H24zM25,3H26V4H25zM28,3H29V4H28zM34,3H35V4H34zM2,4H3V5H2zM4,4H5V5H4zM5,4H6V5H5zM6,4H7V5H6zM8,4H9V5H8zM11,4H12V5H11zM14,4H15V5H14zM15,4H16V5H15zM22,4H23V5H22zM28,4H29V5H28zM30,4H31V5H30zM31,4H32V5H31zM32,4H33V5H32zM34,4H35V5H34zM2,5H3V6H2zM4,5H5V6H4zM5,5H6V6H5zM6,5H7V6H6zM8,5H9V6H8zM10,5H11V6H10zM12,5H13V6H12zM13,5H14V6H13zM14,5H15V6H14zM17,5H18V6H17zM21,5H22V6H21zM22,5H23V6H22zM24,5H25V6H24zM28,5H29V6H28zM30,5H31V6H30zM31,5H32V6H31zM32,5H33V6H32zM34,5H35V6H34zM2,6H3V7H2zM4,6H5V7H4zM5,6H6V7H5zM6,6H7V7H6zM8,6H9V7H8zM12,6H13V7H12zM15,6H16V7H15zM16,6H17V7H16zM18,6H19V7H18zM21,6H22V7H21zM22,6H23V7H22zM25,6H26V7H25zM26,6H27V7H26zM28,6H29V7H28zM30,6H31V7H30zM31,6H32V7H31zM32,6H33V7H32zM34,6H35V7H34zM2,7H3V8H2zM8,7H9V8H8zM11,7H12V8H11zM12,7H13V8H12zM14,7H15V8H14zM16,7H17V8H16zM20,7H21V8H20zM21,7H22V8H21zM24,7H25V8H24zM28,7H29V8H28zM34,7H35V8H34zM2,8H3V9H2zM3,8H4V9H3zM4,8H5V9H4zM5,8H6V9H5zM6,8H7V9H6zM7,8H8V9H7zM8,8H9V9H8zM10,8H11V9H10zM12,8H13V9H12zM14,8H15V9H14zM16,8H17V9H16zM18,8H19V9H18zM20,8H21V9H20zM22,8H23V9H22zM24,8H25V9H24zM26,8H27V9H26zM28,8H29V9H28zM29,8H30V9H29zM30,8H31V9H30zM31,8H32V9H31zM32,8H33V9H32zM33,8H34V9H33zM34,8H35V9H34zM10,9H11V10H10zM11,9H12V10H11zM12,9H13V10H12zM13,9H14V10H13zM14,9H15V10H14zM18,9H19V10H18zM19,9H20V10H19zM20,9H21V10H20zM24,9H25V10H24zM26,9H27V10H26zM2,10H3V11H2zM4,10H5V11H4zM5,10H6V11H5zM7,10H8V11H7zM8,10H9V11H8zM9,10H10V11H9zM18,10H19V11H18zM19,10H20V11H19zM23,10H24V11H23zM25,10H26V11H25zM26,10H27V11H26zM28,10H29V11H28zM31,10H32V11H31zM33,10H34V11H33zM34,10H35V11H34zM4,11H5V12H4zM5,11H6V12H5zM6,11H7V12H6zM9,11H10V12H9zM10,11H11V12H10zM11,11H12V12H11zM15,11H16V12H15zM16,11H17V12H16zM18,11H19V12H18zM20,11H21V12H20zM21,11H22V12H21zM22,11H23V12H22zM24,11H25V12H24zM25,11H26V12H25zM28,11H29V12H28zM29,11H30V12H29zM31,11H32V12H31zM32,11H33V12H32zM33,11H34V12H33zM34,11H35V12H34zM3,12H4V13H3zM5,12H6V13H5zM6,12H7V13H6zM7,12H8V13H7zM8,12H9V13H8zM11,12H12V13H11zM12,12H13V13H12zM14,12H15V13H14zM15,12H16V13H15zM20,12H21V13H20zM25,12H26V13H25zM28,12H29V13H28zM29,12H30V13H29zM30,12H31V13H30zM31,12H32V13H31zM33,12H34V13H33zM34,12H35V13H34zM4,13H5V14H4zM5,13H6V14H5zM6,13H7V14H6zM7,13H8V14H7zM10,13H11V14H10zM12,13H13V14H12zM20,13H21V14H20zM25,13H26V14H25zM26,13H27V14H26zM27,13H28V14H27zM28,13H29V14H28zM29,13H30V14H29zM31,13H32V14H31zM34,13H35V14H34zM3,14H4V15H3zM8,14H9V15H8zM9,14H10V15H9zM11,14H12V15H11zM12,14H13V15H12zM14,14H15V15H14zM16,14H17V15H16zM17,14H18V15H17zM18,14H19V15H18zM24,14H25V15H24zM25,14H26V15H25zM26,14H27V15H26zM27,14H28V15H27zM29,14H30V15H29zM30,14H31V15H30zM31,14H32V15H31zM33,14H34V15H33zM34,14H35V15H34zM3,15H4V16H3zM4,15H5V16H4zM5,15H6V16H5zM7,15H8V16H7zM10,15H11V16H10zM12,15H13V16H12zM14,15H15V16H14zM16,15H17V16H16zM17,15H18V16H17zM23,15H24V16H23zM26,15H27V16H26zM27,15H28V16H27zM29,15H30V16H29zM31,15H32V16H31zM33,15H34V16H33zM4,16H5V17H4zM8,16H9V17H8zM9,16H10V17H9zM10,16H11V17H10zM16,16H17V17H16zM19,16H20V17H19zM20,16H21V17H20zM21,16H22V17H21zM24,16H25V17H24zM26,16H27V17H26zM28,16H29V17H28zM29,16H30V17H29zM31,16H32V17H31zM32,16H33V17H32zM3,17H4V18H3zM6,17H7V18H6zM10,17H11V18H10zM11,17H12V18H11zM13,17H14V18H13zM15,17H16V18H15zM18,17H19V18H18zM21,17H22V18H21zM22,17H23V18H22zM23,17H24V18H23zM24,17H25V18H24zM25,17H26V18H25zM27,17H28V18H27zM28,17H29V18H28zM30,17H31V18H30zM31,17H32V18H31zM32,17H33V18H32zM3,18H4V19H3zM4,18H5V19H4zM5,18H6V19H5zM6,18H7V19H6zM8,18H9V19H8zM10,18H11V19H10zM13,18H14V19H13zM15,18H16V19H15zM18,18H19V19H18zM20,18H21V19H20zM22,18H23V19H22zM23,18H24V19H23zM24,18H25V19H24zM27,18H28V19H27zM28,18H29V19H28zM30,18H31V19H30zM32,18H33V19H32zM5,19H6V20H5zM6,19H7V20H6zM7,19H8V20H7zM10,19H11V20H10zM11,19H12V20H11zM12,19H13V20H12zM13,19H14V20H13zM15,19H16V20H15zM17,19H18V20H17zM22,19H23V20H22zM25,19H26V20H25zM28,19H29V20H28zM30,19H31V20H30zM31,19H32V20H31zM33,19H34V20H33zM34,19H35V20H34zM6,20H7V21H6zM8,20H9V21H8zM10,20H11V21H10zM12,20H13V21H12zM15,20H16V21H15zM17,20H18V21H17zM18,20H19V21H18zM19,20H20V21H19zM23,20H24V21H23zM24,20H25V21H24zM27,20H28V21H27zM29,20H30V21H29zM30,20H31V21H30zM32,20H33V21H32zM33,20H34V21H33zM2,21H3V22H2zM3,21H4V22H3zM10,21H11V22H10zM11,21H12V22H11zM12,21H13V22H12zM13,21H14V22H13zM15,21H16V22H15zM16,21H17V22H16zM19,21H20V22H19zM20,21H21V22H20zM21,21H22V22H21zM26,21H27V22H26zM27,21H28V22H27zM28,21H29V22H28zM30,21H31V22H30zM34,21H35V22H34zM2,22H3V23H2zM4,22H5V23H4zM5,22H6V23H5zM8,22H9V23H8zM12,22H13V23H12zM14,22H15V23H14zM15,22H16V23H15zM16,22H17V23H16zM18,22H19V23H18zM19,22H20V23H19zM23,22H24V23H23zM24,22H25V23H24zM29,22H30V23H29zM30,22H31V23H30zM31,22H32V23H31zM32,22H33V23H32zM33,22H34V23H33zM34,22H35V23H34zM2,23H3V24H2zM3,23H4V24H3zM5,23H6V24H5zM7,23H8V24H7zM12,23H13V24H12zM14,23H15V24H14zM16,23H17V24H16zM17,23H18V24H17zM18,23H19V24H18zM22,23H23V24H22zM23,23H24V24H23zM24,23H25V24H24zM25,23H26V24H25zM27,23H28V24H27zM28,23H29V24H28zM31,23H32V24H31zM32,23H33V24H32zM34,23H35V24H34zM4,24H5V25H4zM7,24H8V25H7zM8,24H9V25H8zM10,24H11V25H10zM11,24H12V25H11zM14,24H15V25H14zM15,24H16V25H15zM18,24H19V25H18zM19,24H20V25H19zM20,24H21V25H20zM25,24H26V25H25zM27,24H28V25H27zM28,24H29V25H28zM31,24H32V25H31zM33,24H34V25H33zM34,24H35V25H34zM3,25H4V26H3zM4,25H5V26H4zM6,25H7V26H6zM12,25H13V26H12zM14,25H15V26H14zM16,25H17V26H16zM18,25H19V26H18zM21,25H22V26H21zM22,25H23V26H22zM24,25H25V26H24zM26,25H27V26H26zM28,25H29V26H28zM29,25H30V26H29zM30,25H31V26H30zM31,25H32V26H31zM2,26H3V27H2zM4,26H5V27H4zM8,26H9V27H8zM11,26H12V27H11zM12,26H13V27H12zM17,26H18V27H17zM19,26H20V27H19zM24,26H25V27H24zM26,26H27V27H26zM27,26H28V27H27zM28,26H29V27H28zM29,26H30V27H29zM30,26H31V27H30zM33,26H34V27H33zM34,26H35V27H34zM10,27H11V28H10zM11,27H12V28H11zM13,27H14V28H13zM14,27H15V28H14zM16,27H17V28H16zM17,27H18V28H17zM18,27H19V28H18zM19,27H20V28H19zM21,27H22V28H21zM22,27H23V28H22zM23,27H24V28H23zM26,27H27V28H26zM30,27H31V28H30zM31,27H32V28H31zM2,28H3V29H2zM3,28H4V29H3zM4,28H5V29H4zM5,28H6V29H5zM6,28H7V29H6zM7,28H8V29H7zM8,28H9V29H8zM10,28H11V29H10zM12,28H13V29H12zM16,28H17V29H16zM18,28H19V29H18zM20,28H21V29H20zM21,28H22V29H21zM25,28H26V29H25zM26,28H27V29H26zM28,28H29V29H28zM30,28H31V29H30zM2,29H3V30H2zM8,29H9V30H8zM10,29H11V30H10zM12,29H13V30H12zM18,29H19V30H18zM22,29H23V30H22zM23,29H24V30H23zM24,29H25V30H24zM25,29H26V30H25zM26,29H27V30H26zM30,29H31V30H30zM31,29H32V30H31zM32,29H33V30H32zM33,29H34V30H33zM34,29H35V30H34zM2,30H3V31H2zM4,30H5V31H4zM5,30H6V31H5zM6,30H7V31H6zM8,30H9V31H8zM12,30H13V31H12zM15,30H16V31H15zM17,30H18V31H17zM19,30H20V31H19zM20,30H21V31H20zM21,30H22V31H21zM24,30H25V31H24zM25,30H26V31H25zM26,30H27V31H26zM27,30H28V31H27zM28,30H29V31H28zM29,30H30V31H29zM30,30H31V31H30zM32,30H33V31H32zM33,30H34V31H33zM2,31H3V32H2zM4,31H5V32H4zM5,31H6V32H5zM6,31H7V32H6zM8,31H9V32H8zM10,31H11V32H10zM13,31H14V32H13zM16,31H17V32H16zM19,31H20V32H19zM21,31H22V32H21zM22,31H23V32H22zM24,31H25V32H24zM25,31H26V32H25zM26,31H27V32H26zM29,31H30V32H29zM31,31H32V32H31zM34,31H35V32H34zM2,32H3V33H2zM4,32H5V33H4zM5,32H6V33H5zM6,32H7V33H6zM8,32H9V33H8zM10,32H11V33H10zM11,32H12V33H11zM15,32H16V33H15zM16,32H17V33H16zM17,32H18V33H17zM19,32H20V33H19zM23,32H24V33H23zM25,32H26V33H25zM26,32H27V33H26zM27,32H28V33H27zM28,32H29V33H28zM29,32H30V33H29zM31,32H32V33H31zM32,32H33V33H32zM2,33H3V34H2zM8,33H9V34H8zM11,33H12V34H11zM14,33H15V34H14zM15,33H16V34H15zM18,33H19V34H18zM19,33H20V34H19zM20,33H21V34H20zM24,33H25V34H24zM26,33H27V34H26zM27,33H28V34H27zM28,33H29V34H28zM29,33H30V34H29zM30,33H31V34H30zM34,33H35V34H34zM2,34H3V35H2zM3,34H4V35H3zM4,34H5V35H4zM5,34H6V35H5zM6,34H7V35H6zM7,34H8V35H7zM8,34H9V35H8zM10,34H11V35H10zM12,34H13V35H12zM17,34H18V35H17zM18,34H19V35H18zM19,34H20V35H19zM20,34H21V35H20zM23,34H24V35H23zM25,34H26V35H25zM27,34H28V35H27zM30,34H31V35H30zM32,34H33V35H32z" id="qr-path" fill="#000000" fill-opacity="1" fill-rule="nonzero" stroke="none"/></svg>